<?xml version="1.0" standalone="no"?>
<!DOCTYPE svg PUBLIC "-//W3C//DTD SVG 20010904//EN"
 "http://www.w3.org/TR/2001/REC-SVG-20010904/DTD/svg10.dtd">
<svg version="1.0" xmlns="http://www.w3.org/2000/svg"
 width="1500.000000pt" height="1500.000000pt" viewBox="0 0 1500.000000 1500.000000"
 preserveAspectRatio="xMidYMid meet">
<metadata>
Created by potrace 1.14, written by Peter Selinger 2001-2017
</metadata>
<g transform="translate(0.000000,1500.000000) scale(0.100000,-0.100000)"
fill="#000000" stroke="none">
<path d="M7330 11262 c-8 -3 -18 -9 -21 -13 -3 -5 -47 -12 -97 -15 -51 -4 -95
-11 -98 -16 -3 -4 -23 -8 -44 -8 -49 0 -183 -22 -190 -31 -8 -10 -106 -29
-150 -29 -22 0 -40 -4 -40 -9 0 -5 -19 -12 -42 -16 -51 -8 -100 -29 -118 -50
-7 -8 -18 -15 -25 -15 -7 0 -32 -16 -56 -35 -27 -21 -55 -35 -73 -35 -15 0
-41 -11 -58 -25 -16 -14 -36 -25 -43 -25 -8 0 -18 -6 -22 -13 -11 -17 -96 -57
-120 -57 -12 0 -47 -26 -81 -60 -51 -50 -67 -60 -96 -60 -29 0 -44 -9 -90 -55
-30 -30 -61 -55 -70 -55 -8 0 -17 -8 -21 -19 -5 -17 -73 -84 -194 -191 -28
-25 -51 -50 -51 -57 0 -6 -10 -28 -21 -48 -12 -20 -25 -50 -28 -67 -6 -29 -11
-33 -66 -44 -33 -7 -70 -13 -83 -13 -13 -1 -38 -12 -55 -25 -41 -30 -112 -62
-157 -71 -19 -4 -42 -13 -50 -20 -8 -7 -31 -16 -50 -20 -19 -4 -41 -11 -50
-16 -8 -4 -37 -17 -65 -29 -89 -38 -119 -54 -170 -92 -27 -21 -55 -38 -61 -38
-6 0 -19 -9 -29 -20 -10 -11 -26 -20 -36 -20 -10 0 -22 -6 -26 -13 -4 -8 -16
-16 -25 -20 -10 -3 -18 -13 -18 -22 0 -8 -5 -15 -11 -15 -6 0 -32 -18 -58 -40
-26 -22 -52 -40 -57 -40 -13 0 -54 -43 -54 -56 0 -14 -43 -54 -58 -54 -7 0
-15 -7 -18 -15 -4 -8 -10 -15 -14 -15 -12 0 -100 -81 -100 -92 0 -20 -65 -63
-99 -65 -36 -2 -87 -24 -130 -55 -13 -10 -32 -18 -42 -18 -10 0 -46 -17 -80
-37 -33 -21 -69 -43 -79 -48 -24 -14 -104 -69 -110 -75 -3 -3 -16 -11 -30 -18
-54 -27 -73 -41 -99 -70 -26 -28 -125 -102 -136 -102 -3 0 -31 -20 -63 -45
-31 -25 -61 -45 -66 -45 -4 0 -25 -13 -46 -30 -21 -16 -42 -30 -48 -30 -5 0
-30 -16 -55 -35 -25 -19 -50 -35 -54 -35 -24 0 -103 -113 -103 -145 0 -4 -16
-25 -35 -46 -19 -22 -35 -46 -35 -54 0 -8 -7 -15 -15 -15 -8 0 -15 -5 -15 -10
0 -16 -42 -70 -54 -70 -6 0 -21 -16 -34 -35 -12 -19 -29 -35 -37 -35 -8 0 -19
-9 -25 -20 -6 -11 -17 -20 -24 -20 -14 0 -56 -41 -56 -56 0 -5 -16 -19 -35
-32 -19 -12 -35 -27 -35 -32 0 -12 -28 -45 -90 -107 -5 -4 -28 -29 -51 -55
-23 -27 -48 -48 -55 -48 -8 0 -14 -5 -14 -11 0 -6 -11 -25 -25 -43 -14 -18
-25 -38 -25 -45 0 -11 -62 -95 -81 -111 -3 -3 -12 -23 -20 -45 -7 -22 -17 -45
-22 -52 -4 -6 -3 -14 3 -18 5 -3 10 -14 10 -24 0 -10 8 -29 19 -42 10 -13 22
-40 26 -59 7 -33 68 -110 88 -110 4 0 20 -11 35 -25 15 -13 77 -69 137 -125
61 -55 114 -100 119 -100 6 0 31 -18 57 -40 26 -22 51 -40 56 -40 4 0 14 -9
21 -20 7 -11 18 -20 26 -20 7 0 19 -7 26 -15 7 -8 21 -15 32 -15 10 0 21 -7
24 -15 3 -8 21 -17 40 -21 19 -3 56 -24 82 -45 25 -22 54 -39 63 -39 9 0 22
-7 29 -15 7 -8 19 -15 26 -15 8 0 14 -4 14 -9 0 -10 66 -43 122 -61 21 -6 40
-15 43 -20 3 -5 27 -12 53 -16 26 -3 52 -9 57 -12 14 -9 30 -12 102 -22 34 -5
71 -14 82 -20 12 -5 30 -15 41 -20 11 -6 27 -10 36 -10 9 0 34 -13 57 -29 23
-17 60 -33 82 -37 22 -4 45 -10 50 -14 6 -3 30 -12 55 -19 25 -7 50 -17 55
-21 6 -4 25 -11 42 -15 18 -3 33 -10 33 -14 0 -4 19 -14 43 -21 23 -8 51 -20
62 -27 11 -7 31 -13 45 -13 14 0 52 -14 85 -30 33 -16 87 -35 120 -41 33 -6
64 -14 70 -17 32 -20 157 -45 274 -55 126 -10 136 -12 158 -36 12 -14 23 -32
23 -38 0 -21 65 -15 94 8 l26 20 120 -118 c67 -65 123 -128 126 -140 4 -13 10
-23 15 -23 5 0 9 -7 9 -15 0 -40 176 -153 268 -171 17 -4 32 -10 32 -14 0 -4
21 -14 46 -21 68 -20 73 -32 63 -179 -20 -324 -3 -1236 24 -1268 6 -8 11 -55
11 -115 1 -94 0 -102 -19 -105 -11 -2 -29 -7 -40 -12 -11 -5 -53 -11 -94 -14
-41 -4 -80 -11 -86 -16 -6 -5 -52 -14 -103 -21 -51 -6 -92 -16 -92 -20 0 -5
-12 -9 -28 -9 -15 0 -38 -7 -50 -16 -13 -9 -26 -13 -29 -10 -3 3 -15 -1 -27
-9 -11 -8 -35 -15 -53 -15 -17 0 -34 -4 -37 -9 -3 -5 -28 -14 -56 -21 -27 -7
-50 -16 -50 -21 0 -5 -7 -9 -15 -9 -28 0 -125 -72 -125 -92 0 -5 -9 -21 -21
-37 -24 -33 -23 -88 2 -104 12 -7 28 -4 61 11 24 12 52 22 60 22 9 0 18 5 20
12 2 6 37 14 84 18 43 4 93 14 109 23 17 9 45 17 63 17 17 0 32 5 32 10 0 6
17 10 38 10 45 0 153 20 167 31 6 4 53 10 105 14 52 4 100 11 105 15 6 4 36
10 68 12 45 4 64 10 85 31 16 15 35 27 43 27 26 0 52 81 29 95 -13 8 -14 417
-1 431 20 22 30 80 20 124 -5 25 -11 52 -13 60 -1 8 -5 22 -8 30 -4 8 -9 168
-12 354 -3 210 -10 344 -16 350 -13 13 -13 86 0 86 6 0 10 13 10 29 0 17 -4
33 -10 36 -15 10 -12 78 6 114 14 29 19 31 48 25 17 -3 36 -10 41 -14 6 -4 34
-13 63 -20 28 -6 55 -16 58 -21 3 -5 26 -9 51 -9 27 0 58 -8 77 -19 17 -10 54
-22 81 -26 28 -4 56 -12 63 -17 21 -18 322 -55 462 -57 97 -2 115 -14 106 -73
-4 -23 -14 -50 -22 -59 -8 -9 -18 -34 -21 -55 -3 -22 -11 -42 -17 -46 -15 -10
-15 -750 0 -769 6 -8 14 -60 18 -115 3 -59 12 -114 21 -130 8 -16 15 -39 15
-51 0 -12 11 -43 25 -70 31 -58 31 -116 0 -121 -51 -6 -125 -26 -125 -32 0 -4
-22 -10 -48 -14 -52 -7 -252 -102 -320 -152 -22 -16 -56 -49 -76 -73 -30 -36
-36 -50 -36 -90 0 -78 45 -101 90 -47 7 9 27 16 46 16 18 0 36 4 39 10 9 15
47 12 70 -6 43 -33 186 6 315 86 8 5 31 15 50 23 19 8 49 20 65 28 17 7 64 16
105 19 l75 5 -1 66 c0 38 -7 81 -16 100 -9 19 -19 57 -23 84 -4 28 -12 56 -18
64 -8 9 -13 71 -15 170 -2 86 -7 165 -12 176 -11 25 -27 390 -26 595 1 127 4
161 19 189 18 37 23 71 8 71 -5 0 -13 19 -19 42 -14 53 2 86 61 126 l44 29
211 5 c119 3 217 10 224 15 7 6 58 14 113 17 59 4 109 13 122 22 37 23 106 29
122 10 15 -18 90 -22 107 -7 5 5 50 15 99 21 50 7 99 16 110 20 11 5 51 12 89
15 38 4 77 11 85 15 9 4 36 14 61 21 25 7 50 16 55 20 6 4 38 13 73 19 34 7
62 16 62 21 0 4 21 11 48 14 26 3 59 13 74 21 15 8 71 17 132 21 58 3 106 9
106 14 0 4 15 10 33 14 17 4 41 13 53 20 12 8 38 17 58 20 20 4 39 11 42 16 3
5 16 9 29 9 13 0 27 5 30 10 3 6 15 10 26 10 10 0 19 4 19 9 0 7 73 31 94 31
9 0 -5 -155 -14 -164 -12 -12 -13 -103 -2 -110 5 -3 12 -172 15 -377 4 -208
11 -377 16 -383 5 -6 11 -124 13 -262 3 -267 5 -247 -43 -346 -12 -24 -11 -65
1 -73 6 -3 10 -35 10 -71 0 -36 -4 -64 -10 -64 -5 0 -10 -6 -10 -14 0 -24 -55
-56 -107 -63 -26 -3 -57 -12 -68 -19 -11 -7 -37 -16 -58 -19 -20 -4 -40 -11
-43 -16 -3 -5 -16 -9 -28 -9 -13 0 -34 -8 -47 -19 -13 -10 -34 -21 -46 -25
-12 -4 -54 -41 -92 -83 -69 -73 -71 -76 -71 -127 0 -42 5 -57 23 -74 25 -24
47 -27 75 -13 9 5 46 24 82 41 77 38 111 57 165 89 72 44 105 59 155 71 28 7
53 16 56 21 3 5 34 9 69 9 l64 0 17 40 c11 24 25 40 35 40 20 0 89 74 89 95 0
8 5 15 10 15 15 0 12 64 -5 96 -17 33 -12 79 13 107 9 10 15 35 14 63 0 37 -6
52 -30 78 -17 18 -32 47 -36 68 -3 21 -9 55 -12 75 -3 21 -9 47 -14 58 -7 17
-21 547 -28 1025 -1 74 -6 134 -14 148 -8 16 -9 28 0 45 6 12 13 38 16 57 3
19 8 50 12 69 4 18 3 36 -2 40 -5 3 -15 16 -22 29 -10 18 -10 22 3 22 8 0 15
4 15 9 0 5 15 12 34 15 19 4 39 13 46 21 7 8 17 15 23 15 5 0 29 9 53 20 24
11 64 29 88 40 24 11 50 20 59 20 9 0 21 9 27 20 6 11 18 20 27 20 9 0 24 7
33 15 10 9 34 19 54 22 l36 6 0 -74 c-1 -49 -6 -81 -15 -93 -9 -12 -15 -42
-15 -73 0 -29 -6 -62 -12 -73 -9 -15 -10 -23 -2 -28 7 -4 14 -63 18 -146 4
-77 11 -145 16 -152 6 -6 15 -74 21 -150 6 -77 14 -143 19 -149 4 -5 13 -66
20 -135 7 -69 16 -130 21 -135 4 -6 11 -53 15 -105 4 -52 11 -100 15 -106 5
-6 14 -60 20 -120 6 -60 15 -118 19 -129 5 -11 14 -96 21 -189 l12 -168 -24
-19 c-13 -10 -30 -19 -37 -19 -8 0 -26 -8 -40 -17 -50 -33 -67 -43 -89 -53
-58 -25 -70 -31 -98 -48 -16 -10 -34 -27 -40 -38 -5 -11 -20 -36 -32 -55 -32
-51 -31 -97 3 -109 33 -13 89 -13 114 0 11 6 28 14 39 19 10 5 35 13 56 17 20
3 39 13 42 20 3 8 10 14 16 14 6 0 18 6 26 13 30 25 101 42 122 29 10 -7 25
-12 33 -12 27 0 96 44 102 64 6 22 39 100 55 128 15 30 11 58 -9 58 -26 0 -54
33 -46 54 10 25 -5 86 -21 86 -9 0 -16 16 -20 48 -3 26 -10 54 -14 62 -4 8
-13 60 -20 115 -7 55 -17 108 -22 118 -6 11 -5 24 3 36 9 14 9 23 1 33 -18 22
-24 109 -27 401 -1 181 -6 281 -13 285 -5 4 -13 61 -17 127 -4 65 -12 125 -17
131 -6 7 -12 77 -14 156 -4 143 -10 193 -27 214 -5 7 -10 58 -12 115 -2 57 -7
120 -11 140 -7 33 -5 37 21 48 16 6 52 25 79 40 28 16 67 32 88 35 20 3 37 10
37 16 0 5 46 32 103 60 162 81 179 92 233 148 51 53 81 64 104 37 6 -8 48 -33
93 -55 45 -23 100 -52 122 -66 22 -13 52 -30 68 -36 15 -7 27 -16 27 -20 0 -4
5 -8 11 -8 14 0 123 -53 127 -62 2 -4 24 -17 50 -29 26 -12 67 -36 92 -53 25
-17 57 -38 72 -46 14 -8 41 -23 60 -34 18 -10 49 -32 69 -47 20 -16 42 -29 48
-29 5 0 25 -13 43 -28 36 -32 34 -30 203 -116 64 -33 135 -72 156 -88 21 -15
45 -28 52 -28 7 0 19 -6 26 -12 14 -15 176 -14 195 0 6 5 23 12 37 16 15 3 40
21 57 40 27 31 30 41 36 137 5 67 4 114 -3 132 -6 16 -11 41 -11 57 0 16 -4
31 -9 34 -5 3 -12 44 -16 91 -4 47 -11 88 -17 91 -5 3 -8 36 -7 73 1 38 -1 72
-4 77 -3 5 -9 38 -13 72 -3 34 -11 65 -15 68 -13 8 -11 58 3 72 8 8 8 15 -1
26 -7 8 -17 45 -23 83 -5 37 -14 73 -19 78 -4 6 -10 151 -11 322 -3 240 -7
315 -17 327 -9 11 -10 20 -4 29 6 6 13 46 16 88 4 64 2 81 -14 105 -28 42 -25
209 7 512 4 36 2 58 -7 68 -10 12 -13 66 -12 223 0 170 3 211 17 236 9 17 16
46 16 66 0 19 4 39 9 45 10 10 17 85 27 274 3 63 10 118 15 121 5 3 12 121 16
262 6 250 6 258 -14 280 -11 12 -24 31 -27 43 -13 42 -129 124 -175 124 -11 0
-23 5 -26 10 -8 12 -92 13 -99 1 -3 -4 -30 -11 -59 -14 -30 -3 -63 -10 -73
-15 -11 -6 -41 -16 -69 -22 -27 -6 -63 -17 -80 -25 -52 -24 -99 -43 -125 -50
-14 -3 -34 -10 -45 -15 -11 -4 -46 -13 -78 -20 -32 -6 -70 -18 -85 -26 -15 -8
-35 -14 -44 -14 -9 0 -20 -4 -23 -10 -3 -5 -17 -10 -30 -10 -13 0 -27 -4 -30
-10 -3 -5 -21 -10 -40 -10 -19 0 -36 -4 -39 -9 -3 -4 -24 -11 -47 -15 -23 -4
-53 -16 -67 -26 -13 -11 -37 -20 -53 -20 -16 0 -43 -9 -61 -20 -18 -11 -47
-20 -63 -20 -17 0 -35 -4 -40 -9 -6 -4 -38 -14 -72 -21 -35 -7 -63 -17 -63
-21 0 -5 -8 -9 -18 -9 -9 0 -34 -9 -55 -20 -20 -11 -43 -20 -50 -20 -16 0 -51
-37 -60 -62 -4 -10 -13 -18 -22 -18 -8 0 -15 -8 -15 -18 0 -30 -34 -54 -64
-46 -14 3 -26 10 -26 15 0 5 -11 14 -25 19 -14 5 -28 18 -31 27 -3 10 -10 26
-15 35 -5 10 -9 25 -9 33 0 8 -6 15 -13 15 -15 0 -77 61 -77 76 0 14 -63 74
-77 74 -6 0 -24 14 -40 30 -15 17 -35 30 -44 30 -9 0 -28 9 -42 20 -14 11 -32
20 -40 20 -8 0 -20 6 -26 14 -7 8 -23 17 -36 20 -29 7 -115 66 -115 78 0 4 -7
8 -15 8 -8 0 -15 4 -15 8 0 14 -65 32 -117 32 -45 0 -54 4 -77 31 -14 17 -26
39 -26 49 0 9 -7 23 -15 30 -8 6 -17 21 -21 32 -20 65 -218 271 -302 315 -97
51 -102 54 -102 67 0 8 -6 19 -14 25 -7 6 -16 30 -19 52 -3 22 -13 49 -23 60
-21 23 -71 49 -94 49 -10 0 -29 9 -43 20 -14 11 -28 20 -32 20 -4 0 -18 11
-31 25 -19 20 -33 25 -72 25 -32 0 -54 5 -62 15 -7 8 -18 15 -25 15 -7 0 -33
16 -58 35 -25 19 -48 35 -51 35 -14 0 -121 83 -130 101 -17 34 -42 46 -66 31
-23 -14 -80 -16 -80 -3 0 13 -62 48 -101 56 -19 4 -37 13 -41 19 -5 8 -13 8
-28 -1 -24 -15 -120 -17 -120 -3 0 14 -94 12 -108 -2 -15 -15 -119 -15 -135 1
-15 15 -110 14 -126 -1 -15 -16 -200 -16 -210 -1 -7 11 -197 24 -221 15z m336
-141 c5 -5 74 -11 154 -13 80 -2 152 -8 160 -13 21 -13 36 -16 123 -24 43 -4
82 -12 85 -18 8 -13 109 -33 163 -33 21 0 40 -4 43 -9 3 -4 30 -11 61 -14 32
-3 67 -14 84 -26 16 -12 34 -21 40 -21 6 0 11 -4 11 -8 0 -4 17 -14 38 -21 20
-7 53 -25 72 -40 22 -18 52 -30 82 -33 101 -11 208 -86 208 -145 0 -37 -14
-43 -30 -13 -13 24 -107 70 -142 70 -13 0 -36 7 -52 15 -33 17 -72 20 -81 5
-3 -6 -26 -15 -51 -21 -24 -6 -44 -15 -44 -20 0 -5 -7 -9 -15 -9 -8 0 -32 -15
-52 -33 -21 -19 -46 -37 -55 -40 -10 -4 -18 -11 -18 -18 0 -6 -15 -29 -33 -52
-38 -47 -77 -124 -77 -151 0 -16 -6 -18 -47 -12 -27 3 -156 9 -288 12 -149 4
-245 11 -254 18 -7 6 -48 12 -90 13 -42 1 -85 3 -96 3 -50 2 -215 -14 -215
-20 0 -14 -328 -24 -708 -22 -353 2 -376 1 -417 -18 -24 -11 -52 -20 -63 -20
-10 0 -34 -7 -52 -16 -18 -9 -53 -19 -79 -22 -25 -2 -50 -8 -56 -12 -18 -13
-69 -22 -154 -26 -47 -2 -89 -8 -95 -14 -12 -12 -46 -14 -46 -2 1 9 58 72 66
72 4 0 33 24 64 53 64 59 98 88 122 102 59 36 117 76 166 117 31 26 62 48 67
48 6 0 28 18 49 39 21 22 50 42 64 46 14 3 44 22 67 41 23 19 49 34 57 34 8 0
23 9 33 20 11 12 31 20 52 20 18 0 33 4 33 8 0 5 18 15 40 22 22 7 40 16 40
20 0 5 56 30 80 35 9 2 64 27 84 37 11 6 70 16 130 22 61 6 116 14 121 18 21
13 125 21 125 9 0 -6 -8 -14 -17 -17 -10 -3 -25 -10 -33 -15 -8 -5 -25 -13
-37 -18 -11 -6 -24 -14 -27 -19 -3 -5 -22 -13 -41 -16 -19 -4 -35 -11 -35 -16
0 -6 -6 -10 -14 -10 -7 0 -25 -9 -39 -20 -14 -11 -40 -23 -59 -26 -33 -7 -118
-77 -118 -99 0 -6 -13 -26 -30 -45 -16 -19 -29 -41 -30 -49 0 -8 -9 -24 -20
-36 -23 -24 -37 -111 -22 -133 5 -8 27 -16 50 -19 37 -5 44 -2 81 36 22 22 49
41 60 41 22 0 45 30 55 71 3 14 17 38 31 53 14 15 25 30 25 33 0 13 54 63 67
63 7 0 13 4 13 8 0 5 19 14 43 21 23 7 50 17 59 22 10 5 32 9 49 9 17 0 45 6
62 14 18 8 48 22 67 31 47 21 81 41 89 52 3 5 18 18 34 30 l27 21 -35 31 c-38
33 -41 41 -23 59 14 14 279 17 294 3z m1052 -532 c26 -7 53 -16 59 -22 7 -5
42 -12 78 -15 36 -2 68 -9 71 -13 3 -5 25 -9 48 -9 35 0 49 6 73 30 l29 30 34
-35 c19 -19 39 -35 44 -35 6 0 39 -25 73 -55 33 -30 66 -55 71 -55 5 0 32 -18
58 -40 27 -22 54 -40 61 -40 7 0 13 -4 13 -8 0 -5 11 -14 26 -20 25 -12 59
-75 51 -96 -5 -12 -39 -13 -67 -3 -8 3 -36 8 -62 11 -26 3 -56 9 -65 14 -96
47 -113 52 -186 56 -43 2 -84 9 -90 15 -6 6 -33 11 -61 11 -63 0 -219 22 -226
31 -7 11 -124 29 -182 29 -26 0 -50 5 -53 10 -3 6 -15 10 -26 10 -23 0 -26 32
-4 50 8 7 15 18 15 25 0 7 7 15 15 19 8 3 19 16 24 30 8 20 101 85 124 86 5 0
29 -5 55 -11z m-818 -243 c8 -3 85 -6 171 -8 96 -2 161 -7 170 -14 8 -6 67
-17 132 -24 64 -7 120 -16 122 -20 3 -5 49 -11 103 -15 53 -4 102 -11 108 -16
6 -5 58 -14 115 -20 57 -6 111 -15 120 -19 9 -5 54 -14 100 -20 46 -6 88 -15
94 -20 5 -4 26 -11 45 -15 19 -4 40 -11 45 -15 6 -5 70 -13 143 -18 72 -5 138
-14 145 -20 6 -5 47 -13 89 -17 53 -4 85 -13 102 -26 13 -10 29 -19 34 -19 6
0 23 -7 39 -15 15 -8 67 -34 116 -57 48 -24 105 -52 128 -64 44 -22 209 -181
209 -201 0 -7 10 -17 23 -24 31 -16 87 -70 87 -85 0 -6 8 -14 18 -18 9 -3 41
-19 71 -36 46 -25 67 -31 132 -33 75 -2 78 -1 108 31 18 18 41 32 55 32 13 0
34 8 47 19 13 10 40 21 61 25 20 4 61 20 92 36 30 16 73 33 96 36 22 4 43 11
46 15 3 5 13 9 23 9 10 0 24 7 31 15 7 8 16 13 20 10 4 -3 13 2 20 10 7 8 25
15 41 15 15 0 30 4 34 9 3 5 30 15 60 22 31 7 60 18 66 26 6 7 20 13 30 13 11
0 27 4 37 10 9 5 50 14 90 21 39 6 72 14 72 18 0 4 29 13 65 20 36 7 68 17 71
22 3 5 18 9 34 9 16 0 50 11 76 25 26 14 55 25 65 25 9 0 19 4 21 10 2 5 33
14 69 19 49 7 73 16 94 35 23 21 38 26 79 26 77 0 97 -33 56 -95 -21 -32 -27
-99 -10 -110 12 -7 14 -222 2 -229 -5 -3 -12 -103 -16 -223 -4 -119 -10 -220
-15 -223 -12 -7 -31 -549 -26 -747 3 -92 7 -289 10 -437 3 -148 9 -274 14
-280 4 -6 11 -98 15 -205 3 -112 11 -200 17 -207 6 -7 9 -46 8 -87 -1 -41 1
-78 4 -83 3 -5 8 -83 12 -174 3 -91 10 -174 15 -185 5 -11 13 -59 19 -106 5
-47 16 -98 24 -115 37 -72 57 -156 57 -235 0 -21 4 -40 9 -43 4 -3 10 -39 13
-80 3 -46 11 -85 21 -100 22 -33 22 -56 0 -56 -10 0 -27 -7 -38 -15 -20 -16
-80 -12 -99 6 -6 5 -17 9 -27 9 -9 0 -31 16 -50 35 -19 19 -59 47 -89 61 -30
14 -62 30 -70 35 -8 5 -29 15 -46 23 -17 7 -46 28 -66 45 -20 17 -42 31 -50
31 -7 0 -29 13 -48 29 -19 15 -48 31 -65 35 -19 4 -40 21 -58 46 -16 22 -34
40 -42 40 -20 0 -75 32 -104 60 -44 43 -85 68 -124 75 -20 4 -37 11 -37 16 0
5 -8 13 -17 16 -10 4 -32 17 -49 30 -17 13 -36 23 -42 23 -7 0 -12 5 -12 10 0
6 -6 10 -14 10 -7 0 -24 8 -37 19 -13 10 -45 21 -71 25 -42 6 -92 24 -124 44
-15 10 -93 61 -125 83 -14 9 -47 20 -73 24 -25 4 -49 11 -52 16 -14 23 -92 0
-113 -33 -8 -12 -7 -24 4 -45 19 -37 19 -52 -2 -60 -10 -4 -36 -19 -58 -33
-22 -14 -49 -31 -60 -38 -11 -7 -35 -19 -52 -27 -18 -9 -33 -19 -33 -23 0 -4
-17 -14 -37 -21 -52 -17 -103 -44 -103 -53 0 -5 -9 -8 -21 -8 -26 0 -54 -15
-105 -57 -23 -18 -48 -33 -56 -33 -7 0 -18 -4 -24 -8 -5 -4 -27 -14 -49 -21
-35 -11 -68 -24 -125 -51 -8 -4 -38 -13 -67 -19 -29 -7 -57 -19 -64 -27 -6 -8
-18 -14 -25 -14 -8 0 -19 -11 -24 -24 -15 -40 -70 -96 -95 -96 -12 0 -28 -7
-35 -15 -7 -8 -18 -15 -24 -15 -18 0 -66 -24 -66 -32 0 -5 -7 -8 -15 -8 -9 0
-26 -6 -38 -14 -12 -8 -46 -17 -74 -21 -29 -4 -53 -11 -53 -15 0 -5 -14 -12
-32 -15 -18 -4 -39 -11 -48 -16 -8 -4 -23 -10 -33 -13 -11 -3 -21 -15 -24 -26
-8 -32 -45 -24 -76 15 -25 31 -67 48 -67 27 0 -4 -27 -14 -60 -21 -46 -10 -72
-24 -108 -55 -26 -23 -67 -48 -92 -56 -25 -7 -50 -17 -56 -22 -7 -5 -36 -11
-65 -14 -30 -3 -63 -9 -74 -14 -34 -13 -124 -30 -165 -30 -21 0 -40 -5 -42
-11 -2 -6 -39 -15 -82 -20 -44 -6 -84 -13 -90 -17 -22 -14 -154 -34 -271 -41
-111 -6 -124 -9 -177 -40 -32 -18 -61 -37 -64 -42 -3 -5 -24 -9 -48 -9 -23 0
-48 -6 -55 -12 -9 -10 -123 -13 -500 -13 l-489 0 -40 33 c-40 31 -43 32 -136
31 -87 -2 -97 0 -120 22 -22 21 -33 23 -119 24 -91 0 -97 1 -125 28 -21 21
-42 29 -83 33 -35 4 -68 16 -94 34 -22 15 -46 25 -53 23 -7 -3 -18 0 -25 6 -7
5 -33 13 -57 16 -53 8 -102 28 -120 50 -7 8 -17 15 -22 15 -5 0 -24 11 -42 25
-18 14 -38 25 -44 25 -7 0 -12 5 -12 10 0 6 -10 14 -23 19 -12 5 -45 29 -73
54 -28 25 -62 49 -77 52 -15 4 -66 47 -114 96 -83 84 -129 119 -159 119 -7 0
-24 25 -38 55 -15 30 -32 58 -40 62 -7 4 -16 32 -19 62 -4 30 -11 59 -17 65
-13 13 -13 76 0 76 6 0 10 18 10 40 0 22 -4 40 -9 40 -5 0 -11 89 -15 198 -16
509 -15 503 -47 539 -15 18 -31 50 -34 70 -3 21 -10 46 -15 55 -5 9 -12 57
-16 107 -6 82 -9 92 -35 117 -17 16 -29 38 -29 53 0 43 -20 99 -50 144 -16 24
-31 56 -35 72 -4 17 -10 39 -15 50 -4 11 -13 43 -20 70 -14 59 -45 127 -79
173 -21 28 -25 48 -31 140 -6 105 -7 108 -49 170 -23 34 -46 62 -51 62 -6 0
-10 8 -10 19 0 10 -7 24 -15 31 -8 7 -15 18 -15 25 0 8 -11 27 -25 43 -14 17
-25 35 -25 41 0 6 -4 11 -10 11 -5 0 -10 14 -10 32 0 18 -11 45 -25 64 -14 18
-25 45 -25 60 0 18 -12 41 -34 64 -41 43 -55 88 -29 96 10 3 27 9 38 14 11 4
38 13 60 20 24 7 63 34 98 68 55 54 57 58 57 108 0 47 3 55 34 80 60 52 76 64
84 64 4 0 30 23 57 51 28 28 65 58 83 65 17 8 32 19 32 24 0 6 6 10 13 10 6 0
44 31 82 68 41 39 87 73 110 81 22 8 42 17 45 20 9 10 88 51 100 51 6 0 30 8
53 19 23 10 58 22 77 26 19 4 44 14 55 21 11 8 29 14 41 14 12 0 35 7 50 15
16 8 36 15 44 15 9 0 24 6 35 14 11 7 42 16 68 18 26 3 56 12 65 21 9 8 44 18
77 22 33 4 66 11 72 17 7 6 48 14 90 19 43 5 79 13 81 19 2 5 17 10 34 10 16
0 52 11 80 25 27 14 66 25 87 25 20 0 41 4 46 9 6 5 48 12 95 15 153 11 215
18 225 27 13 13 405 12 405 -1 0 -6 30 -10 69 -10 39 0 73 5 76 10 3 6 35 10
70 10 35 0 67 -4 70 -10 9 -14 68 -13 83 2 7 7 74 13 194 16 101 2 186 7 190
11 8 7 216 5 238 -3z m-3880 -1184 c0 -11 9 -27 20 -37 11 -10 20 -28 20 -39
0 -12 9 -38 20 -59 11 -20 20 -43 20 -51 0 -7 13 -30 29 -50 17 -21 39 -58 51
-84 12 -26 26 -56 33 -67 9 -17 34 -65 86 -165 4 -8 14 -26 21 -40 8 -14 26
-47 41 -75 14 -27 30 -66 34 -85 4 -19 13 -44 20 -55 7 -11 16 -36 20 -55 4
-19 10 -37 14 -40 17 -14 42 -82 52 -145 6 -38 15 -74 19 -80 4 -5 13 -50 20
-100 7 -49 16 -94 20 -100 4 -5 11 -26 15 -45 4 -19 11 -39 15 -45 4 -5 11
-28 15 -50 4 -22 15 -58 25 -80 9 -22 20 -60 24 -84 4 -24 13 -53 21 -64 8
-12 15 -31 15 -42 0 -11 10 -40 22 -65 11 -25 24 -52 28 -60 4 -9 11 -31 15
-50 4 -19 16 -49 26 -66 10 -17 19 -45 19 -62 0 -17 4 -33 10 -37 12 -8 12
-382 0 -390 -6 -4 -10 -56 -10 -117 0 -90 -3 -115 -17 -130 -17 -19 -48 -24
-58 -9 -3 5 -19 12 -35 16 -32 7 -84 61 -74 76 12 20 -19 39 -62 39 -23 0 -45
4 -48 9 -3 5 -42 14 -85 20 -44 7 -92 18 -108 25 -15 8 -61 17 -102 20 -41 4
-79 10 -85 15 -6 5 -33 12 -61 16 -27 4 -54 11 -60 15 -5 4 -43 13 -83 20 -40
7 -75 17 -78 22 -3 4 -12 8 -21 8 -9 0 -31 11 -49 25 -18 14 -39 25 -46 25 -8
0 -33 9 -56 20 -22 11 -50 20 -61 20 -11 0 -25 8 -30 18 -16 30 -114 73 -190
83 -39 4 -78 13 -88 18 -40 22 -171 81 -180 81 -5 0 -27 15 -49 33 -21 19 -64
45 -95 60 -30 14 -78 44 -105 66 -27 23 -53 41 -58 41 -15 0 -94 62 -151 118
-29 28 -56 52 -60 52 -3 0 -21 11 -39 25 -18 14 -36 25 -39 25 -12 0 -57 43
-57 55 0 16 -134 147 -160 157 -11 4 -20 15 -20 24 0 8 51 70 113 136 61 66
117 132 122 146 14 37 38 72 50 72 19 0 106 91 121 126 18 43 274 304 298 304
9 0 19 8 23 18 8 23 124 142 140 142 6 0 16 6 20 13 4 6 29 22 54 35 38 18
109 76 230 187 9 8 20 15 26 15 5 0 18 9 28 20 10 11 28 20 41 20 14 0 43 20
74 50 28 28 58 50 66 50 8 0 14 6 14 14 0 7 8 16 18 20 9 3 39 19 67 34 27 16
57 27 66 25 9 -3 20 0 23 6 4 6 15 11 25 11 10 0 28 11 41 25 28 30 70 34 70
7z"/>
<path d="M7860 10915 c-14 -7 -46 -24 -72 -37 l-48 -23 -45 24 c-24 13 -51 21
-58 18 -15 -6 -107 -110 -107 -122 0 -4 -7 -23 -16 -42 -13 -25 -14 -37 -5
-46 6 -6 11 -21 11 -34 0 -19 5 -23 34 -23 31 0 81 28 99 56 9 16 67 45 77 39
4 -2 22 0 41 6 19 5 66 10 104 10 48 1 78 6 95 17 20 14 53 17 159 19 143 1
151 4 151 54 0 32 -34 65 -77 74 -18 3 -35 11 -38 16 -8 12 -112 12 -120 -1
-3 -5 -21 -10 -40 -10 -19 0 -37 5 -40 10 -9 14 -75 11 -105 -5z"/>
<path d="M11743 9409 c-18 -5 -35 -14 -38 -19 -3 -6 -20 -10 -36 -10 -16 0
-56 -11 -89 -25 -33 -14 -66 -25 -73 -25 -8 0 -22 -9 -32 -20 -10 -11 -22 -20
-28 -20 -5 0 -35 -22 -67 -50 -40 -35 -66 -50 -86 -50 -16 0 -40 -7 -54 -15
-14 -8 -32 -17 -40 -21 -56 -26 -69 -74 -30 -109 21 -19 152 -24 173 -7 7 6
35 16 62 23 28 6 55 15 60 20 6 4 27 10 48 14 20 4 40 11 42 16 3 4 12 5 21 2
13 -5 53 10 104 38 8 5 29 15 45 24 17 8 37 19 45 24 21 12 58 26 108 41 23 7
42 17 42 22 0 4 6 8 13 8 15 0 57 41 57 56 0 22 -42 54 -71 54 -17 0 -42 9
-56 20 -27 21 -67 24 -120 9z"/>
<path d="M11624 8514 c-12 -8 -45 -17 -75 -21 -30 -3 -59 -9 -64 -14 -6 -4
-39 -12 -74 -18 -35 -6 -68 -14 -74 -19 -7 -6 -41 -13 -77 -16 -36 -4 -74 -11
-85 -15 -11 -5 -37 -14 -59 -21 -36 -11 -76 -41 -76 -57 0 -4 12 -20 27 -35
26 -28 29 -28 144 -28 65 0 120 4 123 9 3 4 55 10 116 13 60 3 116 10 123 15
6 6 39 15 71 22 81 15 144 47 167 85 26 42 24 57 -9 89 -25 24 -36 27 -93 26
-39 0 -72 -6 -85 -15z"/>
<path d="M6320 8061 l-25 -7 3 -149 c2 -83 7 -152 12 -155 5 -3 11 -17 15 -32
6 -25 42 -99 76 -158 8 -13 26 -36 40 -50 14 -15 30 -34 35 -43 6 -9 40 -48
77 -86 46 -48 77 -71 99 -76 50 -10 99 -37 131 -72 16 -18 35 -33 42 -33 7 0
18 -6 24 -14 7 -8 31 -18 54 -21 23 -4 51 -13 62 -20 11 -7 36 -16 55 -20 19
-4 37 -11 40 -15 3 -5 32 -10 65 -12 57 -3 60 -2 80 29 l20 32 108 1 c110 0
124 3 222 51 22 10 67 24 100 30 33 7 65 15 70 19 6 4 40 11 78 15 37 3 67 10
67 15 0 5 15 12 33 15 17 4 46 16 63 26 17 10 43 19 57 19 14 0 29 5 32 10 4
6 10 8 15 5 5 -3 11 -1 14 4 4 5 24 12 46 16 22 4 42 11 46 16 3 5 16 9 29 9
13 0 27 5 30 10 3 6 15 10 26 10 10 0 19 5 19 10 0 6 9 10 19 10 11 0 23 4 26
10 3 5 27 16 53 24 26 8 79 30 117 50 39 20 76 36 84 36 7 0 36 16 62 35 27
19 52 35 55 35 3 0 28 18 54 40 26 22 50 40 53 40 9 0 50 43 70 73 20 30 23
87 5 105 -19 19 -63 14 -84 -9 -21 -24 -129 -109 -138 -109 -3 0 -29 -17 -57
-39 -37 -28 -65 -41 -100 -45 -27 -4 -49 -10 -49 -15 0 -5 -35 -14 -77 -21
-43 -6 -82 -15 -88 -19 -22 -17 -120 -42 -150 -39 -36 3 -65 -15 -65 -41 0
-17 -59 -81 -74 -81 -4 0 -26 -9 -49 -19 -44 -20 -191 -37 -225 -27 -11 4 -22
16 -25 26 -6 25 -58 28 -81 5 -8 -8 -18 -15 -23 -15 -5 0 -33 -25 -63 -55 -57
-57 -95 -75 -162 -75 -20 0 -40 -4 -43 -10 -7 -12 -98 -14 -109 -2 -4 4 -71
12 -149 18 -128 11 -148 15 -201 43 -33 17 -65 31 -71 31 -28 0 -55 46 -55 94
0 47 -2 51 -90 143 -49 51 -90 98 -90 103 0 6 -13 23 -30 38 -34 33 -110 142
-110 158 0 6 7 17 15 24 20 17 19 63 -2 82 -22 19 -79 28 -113 19z"/>
<path d="M6877 7903 c-15 -15 -5 -66 18 -97 14 -18 25 -36 25 -40 0 -3 20 -27
45 -52 25 -24 45 -48 45 -52 0 -22 61 -64 99 -69 23 -3 44 -10 47 -14 9 -16
110 -10 124 6 7 8 18 15 24 15 18 0 66 54 66 73 0 14 -21 29 -60 42 -3 1 -18
7 -33 13 -16 7 -53 12 -83 12 -51 0 -57 3 -99 45 -25 24 -45 51 -45 59 0 25
-30 46 -65 46 -19 0 -37 5 -40 10 -7 11 -58 14 -68 3z"/>
<path d="M7644 7896 c-51 -28 -54 -35 -54 -117 0 -60 5 -91 22 -127 26 -57 56
-92 79 -92 9 0 19 -6 22 -12 5 -18 91 -13 119 6 12 9 36 16 53 16 33 0 75 34
75 61 0 8 -26 27 -58 44 -73 38 -89 55 -97 99 -4 20 -11 39 -16 42 -5 3 -9 16
-9 29 0 53 -79 83 -136 51z"/>
<path d="M11323 7718 c-14 -24 -65 -51 -116 -62 -64 -14 -80 -36 -49 -69 12
-13 22 -28 22 -34 0 -18 59 -33 131 -33 37 0 71 -4 74 -10 4 -6 57 -10 126
-10 73 0 119 4 119 10 0 6 45 10 115 10 70 0 115 4 115 10 0 6 6 10 14 10 36
0 35 84 -1 122 -27 29 -76 38 -88 18 -5 -8 -12 -7 -22 1 -9 8 -58 14 -126 16
-62 3 -119 7 -127 10 -8 3 -28 7 -45 9 -128 15 -133 16 -142 2z"/>
<path d="M11265 7149 c-12 -6 -27 -20 -34 -31 -11 -18 -8 -25 30 -64 24 -24
47 -44 51 -44 5 0 30 -15 56 -33 26 -18 68 -43 94 -56 26 -12 48 -26 50 -31 2
-5 55 -35 118 -67 63 -32 127 -67 142 -76 39 -27 160 -35 193 -13 14 9 25 24
25 34 0 22 -60 82 -82 82 -21 0 -36 22 -20 28 7 2 12 18 12 36 0 35 -25 66
-53 66 -9 0 -18 4 -21 9 -4 5 -24 12 -46 16 -22 4 -40 10 -40 14 0 4 -17 13
-37 20 -21 8 -51 24 -68 36 -16 12 -36 20 -43 18 -8 -3 -24 -1 -35 5 -12 6
-42 13 -67 17 -24 3 -49 10 -55 15 -10 8 -117 31 -139 29 -6 0 -20 -5 -31 -10z"/>
<path d="M3623 8578 c-18 -11 -33 -25 -33 -31 0 -7 -24 -23 -53 -37 -58 -28
-122 -72 -184 -128 -22 -20 -53 -45 -67 -55 -14 -10 -26 -26 -26 -36 0 -9 -7
-26 -15 -37 -22 -29 -19 -90 7 -124 16 -23 30 -30 55 -30 32 0 41 3 90 28 13
7 31 12 42 12 11 0 44 25 73 56 29 31 63 66 76 77 12 11 22 28 22 37 0 9 18
34 40 55 31 30 40 47 40 72 0 20 8 41 20 53 28 28 26 74 -5 94 -31 20 -42 19
-82 -6z"/>
</g>
</svg>
